<?xml version="1.0"?>
<svg version="1.1" xmlns="http://www.w3.org/2000/svg" width="400px" height="200px" style=""><path fill="#fd377e" d="M50.62,121.6l0-3.06l2.7-1.08l0-16.92l-2.7-1.08l0-3.06l8.28-0.18l10.08,0l0,6.84l-3.348,0l-0.9-2.52l-5.832,0l0,6.3l7.452,0l0,3.96l-7.452,0l0,6.66l3.312,1.08l0,3.06l-11.592,0z M72.92236,105.22l0-2.88l8.28-0.18l0,12.42c0,1.98,0.576,2.88,2.196,2.88c2.34,0,4.068-1.944,4.068-1.944l0-9.396l-2.88-0.9l0-2.88l8.28-0.18l0,15.66l2.88,0.72l0,2.808l-7.596,0.252l-0.36-2.52s-2.88,2.88-6.3,2.88c-3.6,0-5.688-2.412-5.688-6.444l0-9.396z M107.86072,102.16l0.252,2.484s3.42-2.772,6.624-2.772c3.492,0,5.472,2.484,5.472,6.408l0,9.54l2.52,0.9l0,2.88l-9.9,0l0-2.88l1.98-0.9l0-8.568c0-1.656-0.936-2.88-2.448-2.88c-2.232,0-3.852,2.052-3.852,2.052l0,9.396l1.98,0.9l0,2.88l-10.26,0l0-2.88l2.88-0.9l0-11.7l-2.88-0.9l0-2.88z M140.71108,121.6l-0.324-1.908c-0.504,0.504-2.34,2.268-5.436,2.268c-5.04,0-7.38-3.672-7.38-9.612c0-6.768,3.24-10.548,9.828-10.548c0.864,0,1.908,0.18,2.7,0.36l0-4.572l-2.88-0.72l0-2.88l8.28-0.288l0,24.048l2.88,0.72l0,2.88z M140.09908,115.588l0-8.928c-0.684-0.324-1.764-0.54-2.808-0.54c-3.06,0-4.14,2.34-4.14,5.94c0,3.636,1.008,5.58,3.456,5.58c2.304,0,3.492-2.052,3.492-2.052z"/><path fill="#" d="M169.62,121.6l0-3.06l2.7-1.08l0-16.92l-2.7-1.08l0-3.06l8.28-0.18l10.08,0l0,6.84l-3.348,0l-0.9-2.52l-5.832,0l0,6.3l7.452,0l0,3.96l-7.452,0l0,6.66l3.312,1.08l0,3.06l-11.592,0z M202.36236,101.8c5.832,0,9.072,3.528,9.072,9.72c0,6.48-3.78,10.44-9.612,10.44c-5.868,0-9.18-3.06-9.18-9.9c0-6.48,3.852-10.26,9.72-10.26z M202.18236,106.12c-2.628,0-3.96,1.44-3.96,5.76c0,3.96,1.152,5.76,3.78,5.76c2.592,0,3.852-1.62,3.852-5.94c0-3.672-1.08-5.58-3.672-5.58z M224.01672,102.16l0.324,2.484s2.592-2.844,5.004-2.844c1.98,0,3.348,0.648,3.348,0.648l-0.288,6.912l-3.24,0l-0.54-3.06c-2.088,0-3.888,2.016-3.888,2.016l0,9.504l3.6,0.9l0,2.88l-11.88,0l0-2.88l2.88-0.9l0-11.7l-2.88-0.9l0-2.88z M249.41508,116.992l1.296,2.736c-1.764,1.296-3.78,2.232-6.12,2.232c-4.14,0-5.328-2.88-5.328-7.02l0-8.28l-3.348,0l0-3.492l3.348-0.468l0-4.968l5.4-0.972l0,5.94l5.04,0l0,3.96l-5.04,0l0,7.92c0,2.304,0.396,3.24,1.908,3.24c0.972,0,2.376-0.576,2.844-0.828z M262.39344,102.16l0.324,2.484s2.592-2.844,5.004-2.844c1.98,0,3.348,0.648,3.348,0.648l-0.288,6.912l-3.24,0l-0.54-3.06c-2.088,0-3.888,2.016-3.888,2.016l0,9.504l3.6,0.9l0,2.88l-11.88,0l0-2.88l2.88-0.9l0-11.7l-2.88-0.9l0-2.88z M292.5798,113.068l-11.952,0c0.216,2.88,1.872,4.572,4.356,4.572c2.988,0,6.048-1.692,6.048-1.692l1.548,2.988s-3.6,3.024-8.208,3.024c-6.192,0-9.36-3.6-9.36-9.72c0-6.3,3.564-10.44,9.612-10.44c5.364,0,8.172,3.312,8.172,8.46c0,1.368-0.216,2.7-0.216,2.808z M280.6998,109.72l6.516,0c0-2.052-0.864-3.6-2.952-3.6c-2.016,0-3.276,1.476-3.564,3.6z M301.16616,115.3l0.288,2.34s1.26,0.36,3.024,0.36c1.98,0,2.952-0.612,2.952-1.764c0-2.952-9.612-1.872-9.612-8.28c0-4.5,3.6-6.156,7.416-6.156c3.24,0,6.696,1.08,6.696,1.08l-0.144,5.4l-3.06,0l-0.54-2.16s-1.044-0.36-2.484-0.36c-1.548,0-2.484,0.648-2.484,1.836c0,2.916,9.612,1.656,9.612,7.884c0,4.14-3.348,6.48-8.28,6.48c-3.42,0-6.624-0.792-6.624-0.792l0-5.868l3.24,0z M321.20052,115.3l0.288,2.34s1.26,0.36,3.024,0.36c1.98,0,2.952-0.612,2.952-1.764c0-2.952-9.612-1.872-9.612-8.28c0-4.5,3.6-6.156,7.416-6.156c3.24,0,6.696,1.08,6.696,1.08l-0.144,5.4l-3.06,0l-0.54-2.16s-1.044-0.36-2.484-0.36c-1.548,0-2.484,0.648-2.484,1.836c0,2.916,9.612,1.656,9.612,7.884c0,4.14-3.348,6.48-8.28,6.48c-3.42,0-6.624-0.792-6.624-0.792l0-5.868l3.24,0z"/></svg>
